<svg width="26" height="26" viewBox="0 0 26 26" fill="none" xmlns="http://www.w3.org/2000/svg"> <path d="M13 16.4667C14.9146 16.4667 16.4667 14.9146 16.4667 13C16.4667 11.0854 14.9146 9.53334 13 9.53334C11.0854 9.53334 9.53333 11.0854 9.53333 13C9.53333 14.9146 11.0854 16.4667 13 16.4667Z" fill="#F7F7F7"/> <path d="M9.74999 2.16666L7.76749 4.33332H4.33332C3.14166 4.33332 2.16666 5.30832 2.16666 6.49999V19.5C2.16666 20.6917 3.14166 21.6667 4.33332 21.6667H21.6667C22.8583 21.6667 23.8333 20.6917 23.8333 19.5V6.49999C23.8333 5.30832 22.8583 4.33332 21.6667 4.33332H18.2325L16.25 2.16666H9.74999ZM13 18.4167C10.01 18.4167 7.58332 15.99 7.58332 13C7.58332 10.01 10.01 7.58332 13 7.58332C15.99 7.58332 18.4167 10.01 18.4167 13C18.4167 15.99 15.99 18.4167 13 18.4167Z" fill="#F7F7F7"/></svg>